<svg xmlns="http://www.w3.org/2000/svg" width="24" height="24" viewBox="0 0 24 24" fill="none" stroke="currentColor" stroke-width="2" stroke-linecap="round" stroke-linejoin="round" class="lucide lucide-beef">
  <circle cx="12" cy="12" r="10" fill="#FF4136"/>
  <path d="M12 6V4" stroke="white"/>
  <path d="M10 7.5V4" stroke="white"/>
  <path d="M14 7.5V4" stroke="white"/>
  <path d="M16 10h2" stroke="white"/>
  <path d="M19 12.5h1" stroke="white"/>
  <path d="M19 15h1" stroke="white"/>
  <path d="M16 19v1" stroke="white"/>
  <path d="M12 18v2" stroke="white"/>
  <path d="M8 19v1" stroke="white"/>
  <path d="M4 15h1" stroke="white"/>
  <path d="M4 12.5h1" stroke="white"/>
  <path d="M6 10h2" stroke="white"/>
  <path d="M9 6.5a9 9 0 0 1 6 0" stroke="white"/>
  <path d="M8 8a9 9 0 0 1 8 0" stroke="white"/>
  <path d="M7 9.5a9 9 0 0 1 10 0" stroke="white"/>
  <path d="M7 14a7 7 0 0 0 10 0" stroke="white"/>
  <path d="M8 17.5a7 7 0 0 0 8 0" stroke="white"/>
</svg>